Coordinates
version=1
nRows=7
nColumns=63
inDegrees=yes

Units are S.I. units (second, meters, Newtons, ...)
If the header above contains a line with 'inDegrees', this indicates whether rotational values are in degrees (yes) or radians (no).

endheader
time	pelvis_tilt	pelvis_list	pelvis_rotation	pelvis_tx	pelvis_ty	pelvis_tz	hip_flexion_r	hip_adduction_r	hip_rotation_r	knee_angle_r	knee_angle_r_beta	ankle_angle_r	subtalar_angle_r	mtp_angle_r	hip_flexion_l	hip_adduction_l	hip_rotation_l	knee_angle_l	knee_angle_l_beta	ankle_angle_l	subtalar_angle_l	mtp_angle_l	L5_S1_Flex_Ext	L5_S1_Lat_Bending	L5_S1_axial_rotation	L4_L5_Flex_Ext	L4_L5_Lat_Bending	L4_L5_axial_rotation	L3_L4_Flex_Ext	L3_L4_Lat_Bending	L3_L4_axial_rotation	L2_L3_Flex_Ext	L2_L3_Lat_Bending	L2_L3_axial_rotation	L1_L2_Flex_Ext	L1_L2_Lat_Bending	L1_L2_axial_rotation	L1_T12_Flex_Ext	L1_T12_Lat_Bending	L1_T12_axial_rotation	Abs_r3	Abs_r2	Abs_r1	Abs_t1	Abs_t2	neck_flexion	neck_bending	neck_rotation	arm_flex_r	arm_add_r	arm_rot_r	elbow_flex_r	pro_sup_r	wrist_flex_r	wrist_dev_r	arm_flex_l	arm_add_l	arm_rot_l	elbow_flex_l	pro_sup_l	wrist_flex_l	wrist_dev_l
      0.00000000	     -4.09885666	     -4.36585003	    101.80710238	      0.29921045	      0.69373160	      0.91238538	      2.75564286	      0.91870085	     -4.26298796	      1.06313678	      0.01855524	     15.78243483	     -0.27556059	      0.00000000	      7.54862149	     -0.27284131	      1.84953733	      7.26793762	      0.12684944	     20.21931759	      7.99850380	      0.00000000	      0.38555758	      0.35427949	     -2.29740880	      0.71601898	      0.47119172	     -2.44099685	      0.63343255	      0.86139515	     -2.44099685	      0.44065376	      0.86139515	     -2.01023270	      0.35802877	      0.72244674	     -1.86664465	      0.22030760	      0.54877893	     -1.72305660	      2.75399923	      4.00768045	    -12.77749851	      0.00000000	      0.00000000	     26.31325143	      0.14004276	      8.06995222	     15.57547441	     -4.39220469	     77.78229679	     39.53549748	      1.31757472	     -7.15549476	     14.63262462	     10.52060905	     -6.60919441	     55.78939246	     47.39083024	     73.26124099	      5.59462090	      4.81005733
      0.01694915	     -4.43603671	     -4.25357702	    101.64802284	      0.29960436	      0.69363791	      0.91288832	      2.63290338	      0.58260702	     -3.46970996	      1.02763115	      0.01793555	     15.91521484	     -0.99759016	      0.00000000	      6.98841812	      0.02391188	      1.01283811	      6.40894841	      0.11185725	     20.20294258	      9.19483745	      0.00000000	      0.33924838	      0.29042971	     -2.21694248	      0.63001817	      0.38627151	     -2.35550139	      0.55735117	      0.70615080	     -2.35550139	      0.38772698	      0.70615080	     -1.93982467	      0.31502605	      0.59224426	     -1.80126577	      0.19384653	      0.44987562	     -1.66270686	      2.42321728	      3.28539896	    -12.32996900	      0.00000000	      0.00000000	     26.37184133	      0.16075947	      5.99937818	     16.44679945	     -4.55464232	     80.18492853	     39.05426492	      1.66425179	     -0.38697671	      8.02431520	      9.39765816	     -6.26715447	     50.59603588	     47.18483183	     78.21383675	      9.44978727	      5.58714428
      0.03389831	     -4.70822026	     -4.12644688	    101.74125676	      0.29924887	      0.69343134	      0.91339685	      2.49799770	      0.28753206	     -3.50418963	      1.05314009	      0.01838076	     16.16130415	     -1.06823151	      0.00000000	      6.53666893	      0.33453659	      1.03651381	      5.73509324	      0.10009626	     20.09069569	      9.50839077	      0.00000000	      0.29974296	      0.25211647	     -2.20613492	      0.55665265	      0.33531491	     -2.34401836	      0.49244771	      0.61299599	     -2.34401836	      0.34257623	      0.61299599	     -1.93036806	      0.27834131	      0.51411591	     -1.79248463	      0.17127313	      0.39052841	     -1.65460119	      2.14103397	      2.85199194	    -12.26986061	      0.00000000	      0.00000000	     26.37092557	      0.53864664	      5.63956446	     16.50779585	     -4.93349384	     79.34587385	     39.88060153	      2.00560402	      0.64278812	      6.15986643	      9.22276740	     -6.55837608	     50.00179729	     47.39859464	     78.61665711	      9.75233725	      5.27517609
      0.05084746	     -4.80325225	     -4.11635007	    101.59889858	      0.29951985	      0.69325761	      0.91361214	      2.51913853	      0.16984125	     -3.55854683	      1.04526728	      0.01824336	     16.18914110	     -0.63966747	      0.00000000	      6.21404312	      0.42037661	      0.53100960	      5.05251959	      0.08818310	     19.95668010	     10.14644956	      0.00000000	      0.29044308	      0.23133828	     -2.15074056	      0.53938184	      0.30767991	     -2.28516185	      0.47716893	      0.56247590	     -2.28516185	      0.33194739	      0.56247590	     -1.88189799	      0.26970544	      0.47174502	     -1.74747671	      0.16595918	      0.35834300	     -1.61305542	      2.07460587	      2.61694490	    -11.96177379	      0.00000000	      0.00000000	     26.40845847	      0.63259924	      5.10469913	     16.79418425	     -4.89444554	     81.31140404	     39.09942897	      2.46080675	      4.80569207	      0.95393904	      8.95210927	     -6.43164119	     48.69164842	     46.97013616	     82.94734685	     12.09821171	      4.37726332
      0.06779661	     -4.94531242	     -4.10084415	    101.62517340	      0.29940920	      0.69300434	      0.91377137	      2.49909263	      0.00832656	     -3.41382242	      1.04865047	      0.01830240	     16.10979645	     -0.90078822	      0.00000000	      5.97693185	      0.59156965	      0.47000725	      4.57130921	      0.07978440	     19.78659842	     10.33995493	      0.00000000	      0.28478558	      0.21263340	     -2.16188131	      0.52887530	      0.28280242	     -2.29699889	      0.46787423	      0.51699685	     -2.29699889	      0.32548144	      0.51699685	     -1.89164615	      0.26445189	      0.43360203	     -1.75652856	      0.16272648	      0.32936914	     -1.62141098	      2.03419492	      2.40535156	    -12.02373528	      0.00000000	      0.00000000	     26.38435446	      1.09334956	      5.58203402	     16.57776874	     -5.05716483	     80.84323827	     39.54878129	      2.69215797	      4.88261912	      0.17776602	      9.04182398	     -6.86497069	     49.79043764	     47.19812294	     83.93764401	     12.13624867	      3.93344904
      0.08474576	     -5.01230757	     -4.08185229	    101.63303411	      0.29937284	      0.69275653	      0.91385032	      2.46833033	     -0.05380516	     -3.16521616	      1.01878925	      0.01778123	     15.93557848	     -1.34742264	      0.00000000	      5.80783592	      0.67829491	      0.39492691	      4.23637199	      0.07393864	     19.63167917	     10.43756808	      0.00000000	      0.28321088	      0.20505814	     -2.16774020	      0.52595093	      0.27272732	     -2.30322396	      0.46528716	      0.49857835	     -2.30322396	      0.32368172	      0.49857835	     -1.89677267	      0.26298963	      0.41815455	     -1.76128891	      0.16182670	      0.31763505	     -1.62580515	      2.02294703	      2.31965865	    -12.05632064	      0.00000000	      0.00000000	     26.32727553	      1.46256509	      6.24398650	     16.28878541	     -5.30675905	     80.39077655	     40.16585431	      2.94723944	      4.45468089	     -0.16464348	      9.31847640	     -7.32512874	     51.63208847	     47.35196529	     85.15484438	     11.70277806	      2.77541248
      0.10169492	     -4.99262787	     -4.06626631	    101.57888087	      0.29947559	      0.69243764	      0.91383023	      2.48305342	     -0.02091262	     -3.09220113	      1.02866156	      0.01795353	     15.77343169	     -1.47311515	      0.00000000	      5.74553763	      0.66450415	      0.28584579	      4.14583129	      0.07235841	     19.63535061	     10.39128415	      0.00000000	      0.28331517	      0.20415099	     -2.19906063	      0.52614460	      0.27152082	     -2.33650192	      0.46545849	      0.49637272	     -2.33650192	      0.32380091	      0.49637272	     -1.92417805	      0.26308647	      0.41630470	     -1.78673676	      0.16188629	      0.31622989	     -1.64929547	      2.02369192	      2.30939685	    -12.23051552	      0.00000000	      0.00000000	     26.28246766	      1.57993786	      6.38579268	     16.11999420	     -5.47079521	     80.31321382	     40.65432836	      3.04477513	      4.32188032	     -0.18132883	      9.15463875	     -7.74282430	     52.38386497	     47.87786134	     85.49924556	     11.61491267	      2.34684122
